<?xml version="1.0" encoding="UTF-8"?>
<!DOCTYPE svg PUBLIC "-//W3C//DTD SVG 1.1//EN" "http://www.w3.org/Graphics/SVG/1.1/DTD/svg11.dtd">
<svg xmlns="http://www.w3.org/2000/svg" version="1.1" width="225px" height="225px" style="shape-rendering:geometricPrecision; text-rendering:geometricPrecision; image-rendering:optimizeQuality; fill-rule:evenodd; clip-rule:evenodd" xmlns:xlink="http://www.w3.org/1999/xlink">
<g><path style="opacity:1" fill="#fefefe" d="M -0.5,-0.5 C 74.5,-0.5 149.5,-0.5 224.5,-0.5C 224.5,74.5 224.5,149.5 224.5,224.5C 149.5,224.5 74.5,224.5 -0.5,224.5C -0.5,149.5 -0.5,74.5 -0.5,-0.5 Z"/></g>
<g><path style="opacity:1" fill="#d6a028" d="M 90.5,183.5 C 91.1499,183.196 91.8165,182.863 92.5,182.5C 95.0271,187.194 98.6938,190.694 103.5,193C 109.222,193.192 112.722,190.358 114,184.5C 115.025,175.044 116.691,165.711 119,156.5C 124.495,146.996 131.495,138.663 140,131.5C 143.398,127.387 145.065,122.72 145,117.5C 139.667,122.167 134.333,126.833 129,131.5C 126.759,128.155 126.092,124.489 127,120.5C 134.652,112.297 135.318,103.631 129,94.5C 124.997,89.6646 120.83,84.9979 116.5,80.5C 116.44,79.9569 116.107,79.6236 115.5,79.5C 114.513,82.7683 114.18,86.1016 114.5,89.5C 114.116,93.586 113.283,97.586 112,101.5C 105.655,112.369 101.821,124.036 100.5,136.5C 99.1952,134.603 98.5286,132.269 98.5,129.5C 98.5753,125.445 99.0753,121.445 100,117.5C 104.396,106.977 108.396,96.3106 112,85.5C 112.667,82.1667 112.667,78.8333 112,75.5C 107.614,67.719 107.447,59.8857 111.5,52C 108.787,45.0705 107.953,37.9039 109,30.5C 109.911,27.4245 111.744,25.0911 114.5,23.5C 110.521,30.0086 110.521,37.0086 114.5,44.5C 126.247,59.413 137.413,74.7464 148,90.5C 155.827,102.486 161.16,115.486 164,129.5C 166.073,141.948 164.073,153.615 158,164.5C 148.747,174.397 137.747,177.063 125,172.5C 124.542,169.442 124.876,166.442 126,163.5C 144.422,166.115 155.422,158.115 159,139.5C 160.229,131.079 158.895,123.079 155,115.5C 143.374,93.8948 129.541,73.8948 113.5,55.5C 112.914,55.7093 112.414,56.0426 112,56.5C 111.333,59.5 111.333,62.5 112,65.5C 118.667,73.5 125.333,81.5 132,89.5C 136.995,96.5128 138.662,104.179 137,112.5C 139.683,109.984 142.183,107.317 144.5,104.5C 149.811,116.306 149.644,127.973 144,139.5C 139.033,145.469 133.699,151.135 128,156.5C 126.414,158.67 125.08,161.004 124,163.5C 122.23,172.754 120.897,182.088 120,191.5C 117.846,200.564 112.346,203.397 103.5,200C 97.0834,196.09 92.7501,190.59 90.5,183.5 Z"/></g>
<g><path style="opacity:1" fill="#d6a02a" d="M 90.5,72.5 C 97.7454,72.5552 99.7454,75.7218 96.5,82C 91.6433,83.7528 88.6433,82.2528 87.5,77.5C 88.0924,75.5775 89.0924,73.9108 90.5,72.5 Z"/></g>
<g><path style="opacity:1" fill="#fdfbf7" d="M 116.5,80.5 C 120.83,84.9979 124.997,89.6646 129,94.5C 135.318,103.631 134.652,112.297 127,120.5C 126.092,124.489 126.759,128.155 129,131.5C 134.333,126.833 139.667,122.167 145,117.5C 145.065,122.72 143.398,127.387 140,131.5C 131.495,138.663 124.495,146.996 119,156.5C 116.691,165.711 115.025,175.044 114,184.5C 112.722,190.358 109.222,193.192 103.5,193C 98.6938,190.694 95.0271,187.194 92.5,182.5C 91.8165,182.863 91.1499,183.196 90.5,183.5C 90.5,183.167 90.5,182.833 90.5,182.5C 93.6551,179.838 95.8218,176.505 97,172.5C 98.6966,164.898 100.03,157.231 101,149.5C 104.667,145.833 108.333,142.167 112,138.5C 112.767,134.406 112.434,130.406 111,126.5C 107.998,130.668 104.498,134.335 100.5,137.5C 100.5,137.167 100.5,136.833 100.5,136.5C 101.821,124.036 105.655,112.369 112,101.5C 113.283,97.586 114.116,93.586 114.5,89.5C 115.167,86.5 115.833,83.5 116.5,80.5 Z"/></g>
<g><path style="opacity:1" fill="#e7ca93" d="M 116.5,80.5 C 115.833,83.5 115.167,86.5 114.5,89.5C 114.18,86.1016 114.513,82.7683 115.5,79.5C 116.107,79.6236 116.44,79.9569 116.5,80.5 Z"/></g>
<g><path style="opacity:1" fill="#d7a12c" d="M 125.5,101.5 C 126.613,102.946 126.78,104.613 126,106.5C 122,111.167 118,115.833 114,120.5C 113.333,118.833 113.333,117.167 114,115.5C 118.069,110.94 121.902,106.274 125.5,101.5 Z"/></g>
<g><path style="opacity:1" fill="#d6a028" d="M 100.5,137.5 C 104.498,134.335 107.998,130.668 111,126.5C 112.434,130.406 112.767,134.406 112,138.5C 108.333,142.167 104.667,145.833 101,149.5C 100.03,157.231 98.6966,164.898 97,172.5C 95.8218,176.505 93.6551,179.838 90.5,182.5C 81.2405,184.623 74.0738,181.623 69,173.5C 64.7897,164.657 62.7897,155.323 63,145.5C 55.4496,125.858 59.9496,109.691 76.5,97C 85.6081,92.0312 94.1081,86.1978 102,79.5C 103.59,77.3502 104.257,75.0168 104,72.5C 99.3138,74.6432 96.1471,73.3099 94.5,68.5C 95.6433,63.7472 98.6433,62.2472 103.5,64C 105.068,66.3041 106.235,68.8041 107,71.5C 108.435,81.564 107.101,91.2307 103,100.5C 90.2197,122.61 84.8863,146.277 87,171.5C 82.8802,152.443 84.2135,133.776 91,115.5C 96.344,105.11 100.677,94.4431 104,83.5C 96.13,90.8485 87.63,97.3485 78.5,103C 66.843,112.477 62.0097,124.644 64,139.5C 65.4669,136.734 67.3002,134.234 69.5,132C 71.9712,131.294 74.3046,131.627 76.5,133C 82.6308,140.474 83.9641,148.64 80.5,157.5C 78.8087,159.256 76.8087,159.756 74.5,159C 71.7336,157.533 69.2336,155.7 67,153.5C 66.3285,162.168 69.4952,169.001 76.5,174C 86.384,175.633 92.2173,171.466 94,161.5C 95.6398,155.607 96.6398,149.607 97,143.5C 97.5637,141.113 98.7304,139.113 100.5,137.5 Z"/></g>
<g><path style="opacity:1" fill="#d9a437" d="M 81.5,108.5 C 82.2389,108.369 82.9056,108.536 83.5,109C 81.1312,111.57 79.1312,114.404 77.5,117.5C 79.1573,121.361 80.6573,121.361 82,117.5C 82.4676,123.061 80.4676,124.395 76,121.5C 75.6159,116.264 77.4492,111.931 81.5,108.5 Z"/></g>
<g><path style="opacity:1" fill="#d6a029" d="M 118.5,132.5 C 126.624,134.206 127.624,137.873 121.5,143.5C 119.49,142.498 117.49,141.498 115.5,140.5C 117.076,138.021 118.076,135.354 118.5,132.5 Z"/></g>
<g><path style="opacity:1" fill="#fdf9f4" d="M 73.5,140.5 C 77.4866,140.652 78.9866,142.652 78,146.5C 75.8328,149.287 72.9994,150.12 69.5,149C 68.4464,147.612 68.2797,146.112 69,144.5C 70.3968,142.93 71.8968,141.596 73.5,140.5 Z"/></g>
<g><path style="opacity:1" fill="#d7a22e" d="M 104.5,147.5 C 108.417,150.914 112.251,154.58 116,158.5C 116.236,161.226 115.403,163.559 113.5,165.5C 108.974,160.948 105.307,155.782 102.5,150C 103.381,149.292 104.047,148.458 104.5,147.5 Z"/></g>
<g><path style="opacity:1" fill="#d59f25" d="M 141.5,147.5 C 144.09,148.128 146.423,149.295 148.5,151C 147.126,153.583 145.626,156.083 144,158.5C 141.863,157.521 140.029,156.188 138.5,154.5C 139.312,152.055 140.312,149.722 141.5,147.5 Z"/></g>
<g><path style="opacity:1" fill="#d69f26" d="M 105.5,165.5 C 113.116,168.421 113.45,172.088 106.5,176.5C 104.354,175.444 102.688,173.944 101.5,172C 103.07,169.941 104.403,167.774 105.5,165.5 Z"/></g>
<g><path style="opacity:1" fill="#d6a029" d="M 104.5,177.5 C 112.25,180.707 112.417,184.373 105,188.5C 102.888,187.392 101.054,185.892 99.5,184C 101.79,182.223 103.457,180.056 104.5,177.5 Z"/></g>
<g><path style="opacity:1" fill="#d6a029" d="M 126.5,179.5 C 128.39,181.59 130.057,183.923 131.5,186.5C 133.648,182.386 134.982,182.719 135.5,187.5C 135.473,189.704 134.473,190.538 132.5,190C 129.071,187.308 127.071,183.808 126.5,179.5 Z"/></g>
</svg>
